<!DOCTYPE svg PUBLIC "-//W3C//DTD SVG 1.1//EN" "http://www.w3.org/Graphics/SVG/1.1/DTD/svg11.dtd">
<!-- Uploaded to: SVG Repo, www.svgrepo.com, Transformed by: SVG Repo Mixer Tools -->
<svg fill="#00ca00" height="64px" width="64px" version="1.1" id="Layer_1" xmlns="http://www.w3.org/2000/svg" xmlns:xlink="http://www.w3.org/1999/xlink" viewBox="0 0 512.003 512.003" xml:space="preserve" stroke="#00ca00">
<g id="SVGRepo_bgCarrier" stroke-width="0"/>
<g id="SVGRepo_tracerCarrier" stroke-linecap="round" stroke-linejoin="round" stroke="#CCCCCC" stroke-width="25.600150000000003"/>
<g id="SVGRepo_iconCarrier"> <g> <g> <path d="M440.448,87.831H114.629l52.495-52.495c8.084-8.084,8.084-21.19,0-29.274c-8.083-8.084-21.19-8.084-29.274,0 L20.126,123.788c-8.084,8.084-8.084,21.19,0,29.274L137.85,270.786c4.041,4.042,9.338,6.062,14.636,6.062 c5.298,0,10.596-2.02,14.636-6.064c8.084-8.084,8.084-21.19,0-29.274l-52.495-52.495h325.82c27.896,0,50.592-22.695,50.592-50.592 C491.04,110.528,468.345,87.831,440.448,87.831z"/> </g> </g> <g> <g> <path d="M491.877,358.942L374.154,241.218c-8.083-8.084-21.19-8.084-29.274,0c-8.084,8.084-8.084,21.19,0,29.274l52.495,52.495 H71.556c-27.896,0-50.592,22.695-50.592,50.592s22.695,50.593,50.592,50.593h325.819l-52.495,52.495 c-8.084,8.084-8.084,21.19,0,29.274c4.042,4.042,9.34,6.064,14.636,6.064c5.296,0,10.596-2.02,14.636-6.064l117.724-117.724 C499.961,380.132,499.961,367.026,491.877,358.942z"/> </g> </g> </g>
</svg>